<?xml version="1.0" standalone="no"?>
<!DOCTYPE svg PUBLIC "-//W3C//DTD SVG 20010904//EN"
 "http://www.w3.org/TR/2001/REC-SVG-20010904/DTD/svg10.dtd">
<svg version="1.0" xmlns="http://www.w3.org/2000/svg"
 width="1536.000000pt" height="1536.000000pt" viewBox="0 0 1536.000000 1536.000000"
 preserveAspectRatio="xMidYMid meet">
<metadata>
Created by potrace 1.14, written by Peter Selinger 2001-2017
</metadata>
<g transform="translate(0.000000,1536.000000) scale(0.100000,-0.100000)"
fill="#000000" stroke="none">
<path d="M674 15331 c-155 -61 -309 -166 -435 -297 -87 -91 -134 -160 -196
-290 l-43 -91 0 -6942 0 -6941 56 -113 c79 -157 131 -234 226 -333 138 -144
236 -207 442 -286 l101 -38 6855 0 6855 0 65 21 c225 74 270 96 394 197 121
99 254 284 327 453 l39 89 0 6944 0 6943 -53 105 c-102 200 -232 360 -366 450
-83 57 -219 119 -310 143 -53 13 -787 15 -6972 15 l-6914 -1 -71 -28z m7427
-551 c621 -36 1241 -158 1900 -376 553 -182 915 -346 1374 -623 336 -202 588
-386 965 -706 198 -168 440 -391 440 -406 0 -7 -225 -12 -587 -12 -29 0 -50
-4 -47 -8 2 -4 -12 -11 -33 -15 -21 -4 -44 -11 -51 -17 -10 -8 -16 -7 -23 4
-11 20 -73 13 -65 -7 3 -8 -1 -14 -9 -14 -8 0 -15 -7 -15 -15 0 -8 -4 -15 -10
-15 -5 0 -10 5 -10 11 0 7 -10 9 -24 5 -14 -3 -28 -1 -31 4 -5 8 -11 7 -21 -1
-11 -9 -14 -8 -14 4 0 8 6 17 12 19 7 3 2 7 -10 10 -12 4 -22 2 -22 -4 0 -7
-4 -7 -12 -1 -21 15 -58 13 -58 -3 0 -9 -5 -12 -12 -8 -7 5 -25 7 -40 6 -14
-1 -30 3 -33 8 -4 7 -11 8 -18 1 -7 -5 -46 -7 -87 -5 -41 2 -131 5 -200 7 -69
2 -152 9 -185 16 -93 19 -250 11 -307 -17 -97 -47 -204 -188 -230 -301 -15
-67 -19 -906 -4 -1011 l9 -65 -90 85 c-256 241 -581 405 -1090 551 -242 69
-696 213 -785 248 -80 32 -236 100 -483 211 -470 212 -666 281 -940 331 -306
56 -689 40 -1015 -41 -272 -68 -539 -178 -703 -289 -189 -127 -355 -332 -402
-493 -9 -32 -22 -58 -28 -58 -7 0 -61 7 -122 17 -128 19 -221 11 -370 -32
-413 -119 -664 -432 -691 -861 -7 -105 6 -234 31 -304 l14 -39 -72 -36 c-96
-47 -178 -114 -283 -233 -168 -189 -255 -347 -309 -557 -94 -366 -97 -757 -10
-1305 99 -628 222 -1070 466 -1671 85 -210 209 -475 270 -576 171 -286 450
-580 634 -669 39 -18 108 -43 155 -55 47 -13 86 -23 88 -24 3 -2 -66 -273
-102 -401 -14 -50 -50 -162 -81 -249 -30 -87 -53 -160 -50 -163 2 -3 11 1 20
8 26 21 16 2 -12 -24 -32 -30 -67 -113 -49 -119 7 -3 5 -11 -7 -25 -14 -15
-15 -21 -5 -25 8 -3 4 -9 -12 -15 -18 -8 -20 -11 -7 -11 21 -1 22 -17 1 -25
-8 -3 -12 -2 -9 4 3 6 1 10 -4 10 -6 0 -11 -9 -11 -20 0 -10 -6 -23 -13 -27
-15 -9 -28 -31 -79 -133 -24 -49 -33 -82 -36 -135 -4 -68 -3 -71 38 -133 68
-101 191 -231 840 -882 337 -338 683 -689 769 -780 251 -265 1357 -1364 1565
-1555 94 -86 192 -185 188 -190 -9 -9 -348 -6 -517 5 -326 21 -654 65 -1041
140 -471 92 -760 179 -1263 379 -280 112 -509 221 -811 386 -348 189 -689 412
-991 645 -360 280 -769 676 -1074 1041 -634 758 -1130 1736 -1391 2744 -133
517 -214 1147 -214 1676 0 527 45 979 151 1519 118 605 366 1287 683 1880 120
224 200 356 373 615 267 400 379 550 578 780 197 226 236 268 343 362 48 42
141 127 207 189 149 139 261 235 384 330 53 40 152 117 221 170 180 139 256
189 651 430 74 45 225 127 335 182 495 247 958 423 1429 542 469 119 835 179
1285 209 184 12 699 13 911 1z m4842 -3125 c-2 -352 -3 -644 -3 -649 0 -14
-108 73 -389 313 l-53 46 6 104 c4 59 13 116 21 132 21 39 19 86 -2 97 -21 11
-1110 8 -1121 -3 -4 -3 -8 -166 -10 -361 -3 -326 -4 -354 -20 -354 -9 0 -59
14 -111 31 -52 17 -140 39 -195 50 -55 10 -105 25 -111 31 -7 9 -8 188 -5 560
l5 547 44 45 45 46 185 3 c102 1 530 2 951 2 l765 0 -2 -640z m460 297 c192
-256 291 -402 417 -617 194 -331 411 -794 547 -1165 221 -604 322 -1001 402
-1585 37 -269 75 -862 54 -854 -5 2 -52 54 -104 114 -52 61 -191 209 -309 330
-119 121 -245 252 -280 290 -75 82 -279 290 -1170 1194 -360 365 -706 714
-768 775 -139 136 -286 295 -280 302 3 2 273 5 599 6 327 0 576 4 554 7 -36 6
-37 7 -15 13 14 4 55 10 92 14 37 4 65 10 63 14 -3 4 13 10 35 12 22 2 42 -1
44 -7 3 -5 4 285 3 647 -1 361 2 654 6 651 4 -2 54 -66 110 -141z m-3428
-3733 c141 -12 190 -33 262 -113 126 -140 152 -297 114 -686 -23 -243 -35
-292 -89 -376 -101 -156 -248 -226 -506 -244 -457 -31 -652 9 -792 164 -104
114 -144 233 -144 423 l0 124 -442 -4 c-244 -3 -490 -4 -548 -3 -151 1 -988 0
-1612 -2 l-538 -2 3 -62 c2 -35 0 -76 -4 -93 -5 -24 -7 -19 -8 25 -1 30 -4 71
-7 90 l-6 35 -116 5 c-65 3 -255 5 -424 4 l-308 -1 0 145 0 145 64 -6 c36 -3
273 -2 528 4 255 5 904 8 1443 7 1769 -5 1910 -5 1928 10 9 8 28 39 42 69 38
83 110 187 163 234 76 68 177 104 317 112 128 8 572 6 680 -4z m-4850 -2016
c34 -21 85 -49 115 -63 30 -14 58 -29 61 -34 11 -15 -2 -45 -23 -52 -11 -3
-17 -12 -14 -19 3 -9 -2 -11 -17 -9 -22 4 -22 4 1 -5 12 -6 22 -17 22 -26 0
-8 5 -14 12 -12 6 1 14 -7 16 -18 3 -16 1 -18 -9 -7 -7 6 -18 12 -23 12 -6 -1
0 -10 13 -21 l25 -20 -28 7 c-28 7 -28 6 -12 -18 15 -22 14 -25 -4 -38 -11 -8
-20 -19 -20 -24 0 -6 5 -5 12 2 20 20 28 13 16 -14 -10 -21 -9 -27 3 -35 8 -5
20 -7 27 -4 9 3 11 -1 7 -15 -4 -11 -2 -20 3 -20 14 0 23 -30 17 -51 -4 -11
-14 -19 -23 -19 -13 0 -13 -2 4 -15 19 -14 11 -20 -22 -16 -13 1 -34 -42 -34
-69 0 -11 -5 -20 -11 -20 -6 0 -17 -7 -26 -15 -14 -14 -17 -14 -30 2 -8 10
-12 12 -8 6 8 -17 0 -16 -17 0 -7 7 -35 30 -63 51 -51 39 -78 89 -68 126 3 12
0 20 -8 20 -13 0 -3 14 12 16 22 3 23 5 9 14 -13 9 -13 12 3 24 18 14 18 15 0
25 -14 8 -14 10 -3 11 12 0 12 2 1 9 -10 7 -11 13 -2 30 7 11 16 21 21 21 18
0 23 61 6 79 -9 10 -13 20 -10 24 3 3 -4 11 -16 17 -15 8 -19 15 -12 22 6 6 8
17 5 25 -5 12 -7 12 -14 1 -6 -9 -9 -4 -9 15 0 15 0 38 0 52 0 17 -6 25 -18
25 -10 0 -13 3 -6 8 19 12 2 114 -24 147 -9 11 11 -5 43 -37 33 -31 87 -73
120 -95z m283 -118 c35 -7 80 -12 100 -9 l37 4 -30 -14 c-42 -21 -72 -19 -122
5 -24 12 -52 19 -62 16 -11 -2 -18 1 -18 10 0 9 6 12 16 8 9 -4 44 -13 79 -20z
m7535 -482 c-13 -2 -33 -2 -45 0 -13 2 -3 4 22 4 25 0 35 -2 23 -4z m-8233
-1022 c0 -17 -18 -21 -24 -6 -3 9 0 15 9 15 8 0 15 -4 15 -9z m6955 -1036 l0
-120 -315 -6 c-173 -3 -316 -7 -317 -8 -2 0 -3 -59 -3 -131 l0 -130 153 -2
c325 -3 333 -4 371 -27 49 -31 116 -109 116 -137 0 -32 -52 -72 -103 -78 -23
-3 -148 -8 -277 -11 -129 -4 -245 -9 -257 -12 l-23 -5 0 -423 c0 -233 -3 -430
-6 -439 -5 -13 -25 -16 -114 -16 -60 0 -115 3 -124 6 -14 5 -16 43 -17 313 -1
168 -5 434 -8 591 -10 460 7 590 91 685 23 26 56 54 73 61 23 10 109 13 395
11 l365 -2 0 -120z"/>
<path d="M11448 12653 c6 -2 18 -2 25 0 6 3 1 5 -13 5 -14 0 -19 -2 -12 -5z"/>
<path d="M11503 12653 c9 -2 25 -2 35 0 9 3 1 5 -18 5 -19 0 -27 -2 -17 -5z"/>
<path d="M11648 12653 c7 -3 16 -2 19 1 4 3 -2 6 -13 5 -11 0 -14 -3 -6 -6z"/>
<path d="M11920 12629 c0 -6 -7 -9 -15 -5 -8 3 -15 1 -15 -4 0 -12 17 -12 44
-1 18 7 18 8 3 14 -10 4 -17 2 -17 -4z"/>
<path d="M9235 7957 c-57 -19 -89 -42 -118 -86 -48 -73 -57 -127 -57 -351 0
-238 9 -287 67 -351 80 -89 148 -102 505 -97 l264 3 59 30 c106 54 135 136
134 375 0 63 -4 167 -8 232 -7 101 -12 122 -36 163 -46 80 -57 82 -440 89
-259 5 -339 3 -370 -7z"/>
<path d="M5231 5974 c0 -11 3 -14 6 -6 3 7 2 16 -1 19 -3 4 -6 -2 -5 -13z"/>
<path d="M5127 5873 c-15 -14 -6 -33 16 -32 18 1 18 2 4 6 -11 3 -16 11 -13
19 6 15 3 18 -7 7z"/>
<path d="M5202 5815 c1 -14 8 -25 15 -25 14 0 16 10 7 34 -10 25 -24 19 -22
-9z"/>
<path d="M5163 5798 c-1 -11 1 -16 5 -12 4 5 11 12 15 15 5 3 2 9 -5 12 -9 3
-14 -3 -15 -15z"/>
</g>
</svg>
